<?xml version="1.0" encoding="UTF-8"?>
<svg xmlns="http://www.w3.org/2000/svg" xmlns:xlink="http://www.w3.org/1999/xlink" viewBox="0 0 2035.62 1036.1">
  <defs>
    <style>
      .cls-1 {
        fill: url(#Dégradé_sans_nom_121);
      }

      .cls-1, .cls-2, .cls-3, .cls-4, .cls-5, .cls-6, .cls-7, .cls-8, .cls-9, .cls-10, .cls-11, .cls-12, .cls-13, .cls-14, .cls-15, .cls-16, .cls-17, .cls-18, .cls-19, .cls-20, .cls-21, .cls-22 {
        stroke-width: 0px;
      }

      .cls-2 {
        fill: url(#Dégradé_sans_nom_130);
      }

      .cls-3 {
        fill: url(#Dégradé_sans_nom_139);
      }

      .cls-4 {
        fill: url(#Dégradé_sans_nom_124);
      }

      .cls-23 {
        font-family: MyriadPro-Regular, 'Myriad Pro';
        font-size: 12px;
      }

      .cls-6 {
        fill: url(#Dégradé_sans_nom_126);
      }

      .cls-7 {
        fill: url(#Dégradé_sans_nom_131);
      }

      .cls-8 {
        fill: url(#Dégradé_sans_nom_129);
      }

      .cls-9 {
        fill: url(#Dégradé_sans_nom_137);
      }

      .cls-10 {
        fill: url(#Dégradé_sans_nom_140);
      }

      .cls-11 {
        fill: url(#Dégradé_sans_nom_136);
      }

      .cls-12 {
        fill: url(#Dégradé_sans_nom_118);
      }

      .cls-13 {
        fill: url(#Dégradé_sans_nom_128);
      }

      .cls-14 {
        fill: url(#Dégradé_sans_nom_127);
      }

      .cls-15 {
        fill: url(#Dégradé_sans_nom_135);
      }

      .cls-16 {
        fill: url(#Dégradé_sans_nom_132);
      }

      .cls-17 {
        fill: url(#Dégradé_sans_nom_141);
      }

      .cls-18 {
        fill: url(#Dégradé_sans_nom_123);
      }

      .cls-19 {
        fill: url(#Dégradé_sans_nom_134);
      }

      .cls-20 {
        fill: url(#Dégradé_sans_nom_122);
      }

      .cls-21 {
        fill: url(#Dégradé_sans_nom_133);
      }

      .cls-22 {
        fill: url(#Dégradé_sans_nom_138);
      }
    </style>
    <linearGradient id="Dégradé_sans_nom_121" data-name="Dégradé sans nom 121" x1="393.69" y1="549.93" x2="393.69" y2="5" gradientUnits="userSpaceOnUse">
      <stop offset=".17" stop-color="#e6e83c"/>
      <stop offset=".69" stop-color="#ef381f"/>
    </linearGradient>
    <linearGradient id="Dégradé_sans_nom_122" data-name="Dégradé sans nom 122" x1="816.38" y1="546.61" x2="816.38" y2="39.84" gradientUnits="userSpaceOnUse">
      <stop offset=".18" stop-color="#e6e83c"/>
      <stop offset=".7" stop-color="#ef381f"/>
    </linearGradient>
    <linearGradient id="Dégradé_sans_nom_123" data-name="Dégradé sans nom 123" x1="1391.45" y1="547.54" x2="1391.45" y2="101.88" gradientUnits="userSpaceOnUse">
      <stop offset=".16" stop-color="#e6e83c"/>
      <stop offset=".68" stop-color="#ef381f"/>
    </linearGradient>
    <linearGradient id="Dégradé_sans_nom_118" data-name="Dégradé sans nom 118" x1="1609.31" y1="368.15" x2="1609.31" y2="111.87" gradientUnits="userSpaceOnUse">
      <stop offset="0" stop-color="#e6e83c"/>
      <stop offset=".43" stop-color="#ef381f"/>
    </linearGradient>
    <linearGradient id="Dégradé_sans_nom_124" data-name="Dégradé sans nom 124" x1="1855.91" y1="548.43" x2="1855.91" y2="154.73" gradientUnits="userSpaceOnUse">
      <stop offset=".13" stop-color="#e6e83c"/>
      <stop offset=".72" stop-color="#ef381f"/>
    </linearGradient>
    <linearGradient id="Dégradé_sans_nom_126" data-name="Dégradé sans nom 126" x1="343.45" y1="375.05" x2="343.45" y2="981.87" gradientUnits="userSpaceOnUse">
      <stop offset=".32" stop-color="#e6e83c"/>
      <stop offset=".8" stop-color="#ef381f"/>
    </linearGradient>
    <linearGradient id="Dégradé_sans_nom_131" data-name="Dégradé sans nom 131" x1="443.88" y1="378.62" x2="443.88" y2="988.89" gradientUnits="userSpaceOnUse">
      <stop offset=".31" stop-color="#e6e83c"/>
      <stop offset=".79" stop-color="#ef381f"/>
    </linearGradient>
    <linearGradient id="Dégradé_sans_nom_134" data-name="Dégradé sans nom 134" x1="569.81" y1="384.3" x2="569.81" y2="986.25" gradientUnits="userSpaceOnUse">
      <stop offset=".3" stop-color="#e6e83c"/>
      <stop offset=".8" stop-color="#ef381f"/>
    </linearGradient>
    <linearGradient id="Dégradé_sans_nom_128" data-name="Dégradé sans nom 128" x1="191.66" y1="382.48" x2="191.66" y2="980.13" gradientUnits="userSpaceOnUse">
      <stop offset=".33" stop-color="#e6e83c"/>
      <stop offset=".81" stop-color="#ef381f"/>
    </linearGradient>
    <linearGradient id="Dégradé_sans_nom_127" data-name="Dégradé sans nom 127" x1="269.29" y1="378.55" x2="269.29" y2="981.84" gradientUnits="userSpaceOnUse">
      <stop offset=".31" stop-color="#e6e83c"/>
      <stop offset=".8" stop-color="#ef381f"/>
    </linearGradient>
    <linearGradient id="Dégradé_sans_nom_129" data-name="Dégradé sans nom 129" x1="342.31" y1="376.46" x2="342.31" y2="984.61" gradientUnits="userSpaceOnUse">
      <stop offset=".31" stop-color="#e6e83c"/>
      <stop offset=".79" stop-color="#ef381f"/>
    </linearGradient>
    <linearGradient id="Dégradé_sans_nom_130" data-name="Dégradé sans nom 130" x1="429.12" y1="380.25" x2="429.12" y2="987.15" gradientUnits="userSpaceOnUse">
      <stop offset=".31" stop-color="#e6e83c"/>
      <stop offset=".79" stop-color="#ef381f"/>
    </linearGradient>
    <linearGradient id="Dégradé_sans_nom_132" data-name="Dégradé sans nom 132" x1="492.4" y1="382.36" x2="485.76" y2="983.61" gradientUnits="userSpaceOnUse">
      <stop offset=".31" stop-color="#e6e83c"/>
      <stop offset=".79" stop-color="#ef381f"/>
    </linearGradient>
    <linearGradient id="Dégradé_sans_nom_133" data-name="Dégradé sans nom 133" x1="557.34" y1="382.34" x2="553.39" y2="984.43" gradientUnits="userSpaceOnUse">
      <stop offset=".31" stop-color="#e6e83c"/>
      <stop offset=".8" stop-color="#ef381f"/>
    </linearGradient>
    <linearGradient id="Dégradé_sans_nom_135" data-name="Dégradé sans nom 135" x1="738.56" y1="387.5" x2="738.56" y2="993.36" gradientUnits="userSpaceOnUse">
      <stop offset=".3" stop-color="#f4db00"/>
      <stop offset=".8" stop-color="#ef381f"/>
    </linearGradient>
    <linearGradient id="Dégradé_sans_nom_136" data-name="Dégradé sans nom 136" x1="949.88" y1="388.12" x2="949.88" y2="990.66" gradientUnits="userSpaceOnUse">
      <stop offset=".31" stop-color="#f4db00"/>
      <stop offset=".8" stop-color="#ef381f"/>
    </linearGradient>
    <linearGradient id="Dégradé_sans_nom_137" data-name="Dégradé sans nom 137" x1="1252.44" y1="396.73" x2="1252.44" y2="991.7" gradientUnits="userSpaceOnUse">
      <stop offset=".3" stop-color="#e6e83c"/>
      <stop offset=".82" stop-color="#ef381f"/>
    </linearGradient>
    <linearGradient id="Dégradé_sans_nom_138" data-name="Dégradé sans nom 138" x1="1442.98" y1="401.75" x2="1442.98" y2="990.69" gradientUnits="userSpaceOnUse">
      <stop offset=".29" stop-color="#e6e83c"/>
      <stop offset=".82" stop-color="#ef381f"/>
    </linearGradient>
    <linearGradient id="Dégradé_sans_nom_139" data-name="Dégradé sans nom 139" x1="1628.37" y1="402.33" x2="1628.37" y2="996.84" gradientUnits="userSpaceOnUse">
      <stop offset=".29" stop-color="#e6e83c"/>
      <stop offset=".82" stop-color="#ef381f"/>
    </linearGradient>
    <linearGradient id="Dégradé_sans_nom_140" data-name="Dégradé sans nom 140" x1="1806.5" y1="402.82" x2="1806.5" y2="995.98" gradientUnits="userSpaceOnUse">
      <stop offset=".29" stop-color="#e6e83c"/>
      <stop offset=".84" stop-color="#ef381f"/>
    </linearGradient>
    <linearGradient id="Dégradé_sans_nom_141" data-name="Dégradé sans nom 141" x1="1932.69" y1="408.04" x2="1932.69" y2="1001.55" gradientUnits="userSpaceOnUse">
      <stop offset=".28" stop-color="#e6e83c"/>
      <stop offset=".83" stop-color="#ef381f"/>
    </linearGradient>
  </defs>
  <g id="Calque_3" data-name="Calque 3">
    <g>
      <path class="cls-1" d="M626.7,455.39c-1.31-101.94-20.1-208.54-56.39-320.73-6.71-20.82-16.26-38.98-28.65-54.51-12.44-15.58-26.86-27.86-43.3-36.86-16.52-9.05-34.23-14.54-53.2-16.44L233.51,5.67c-43.21-4.32-67.42,12.1-72.09,49.52-2.47,19.72.89,43.26,10.07,70.58,9.55,28.25,17.7,60.35,24.42,96.38,6.76,36.1,11.85,72.77,15.27,110.04,3.46,37.4,5.11,68.91,4.96,94.49.18,21.85,4.01,42.07,11.47,60.62,7.47,18.55,19.33,33.61,35.51,45.17,16.1,11.51,36.07,17.26,59.78,17.28l205.6.18c16.94.02,32.53-2.88,46.8-8.63,14.17-5.74,25.84-14.74,35.02-27.01,9.15-12.19,14.45-27.52,15.95-46.01.44-5.56.58-9.86.44-12.9ZM432.42,218.01c7.26,19.07,12.46,40.97,15.63,65.76,3.17,24.84,4.49,44.98,3.96,60.43-1.31,13.53-3.38,22.11-6.21,25.71-2.83,3.6-6.63,5.32-11.38,5.16-12.75-.86-22.09-2.68-27.99-5.48-5.91-2.81-9.18-9.36-9.79-19.65-2-49.31-9.57-95.98-22.67-140.18-2.6-9.86-3.81-15.63-3.64-17.32.39-3.68,3.07-5.69,8.05-5.98l26.05,1.79c11.41.79,20.73,10.71,27.99,29.77Z"/>
      <path class="cls-20" d="M1056.88,501.14c-.89,20.1-1.87,34.97-2.99,44.59-22.35-.03-51.2.11-86.77.44-36.1.34-67.12.48-92.81.44-27.73-96.87-48.43-162.73-62.19-197.78,6.21,57.78,7.68,112.59,4.33,164.5-.94,14.56-1.84,25.62-2.7,33.18l-148.54-.24c4.38-56.71,4.72-112.03,1.08-166.14-3.62-53.78-12.7-108.97-27.25-165.75-14.53-56.64-35.83-114.76-63.98-174.54l210.3,21.03c19.18,27.17,35.33,50.54,48.43,70.14,13.07,19.55,25.41,38.83,36.99,57.84,11.57,18.97,22.19,37.51,31.84,55.61-13.82-44.56-38.5-104.61-74.16-180.42l134.59,13.49c19.28,35.96,35.33,72.4,48.18,109.41,12.86,37.02,22.87,73.57,30.01,109.73,7.14,36.25,11.89,71.24,14.24,105,2.34,33.91,2.81,67.05,1.39,99.47Z"/>
      <path class="cls-18" d="M1586.54,546.75c-17.53-.03-40.13.1-67.94.39-28.18.31-52.35.44-72.35.4-25.13-85.44-43.65-143.56-55.64-174.47,6.97,51.02,10.13,99.37,9.47,145.17-.18,12.82-.47,22.56-.87,29.24l-114.79-.19c1.21-49.81-.63-98.44-5.48-146.03-4.83-47.32-13.93-95.92-27.33-145.89-13.37-49.87-32.02-100.97-56-153.48l163.45,16.34c15.95,23.92,29.38,44.51,40.31,61.78,10.92,17.23,21.25,34.23,30.98,51.02,9.73,16.74,18.7,33.11,26.89,49.11-12.43-39.45-33.91-92.57-64.51-159.56l105.68,10.6c16.44,31.85,30.35,64.18,41.79,97.03,11.43,32.86,20.59,65.32,27.51,97.45,6.92,32.21,11.91,63.29,14.95,93.28,3.05,30.09,4.61,59.52,4.64,88.27.03,17.83-.23,31-.74,39.53Z"/>
      <path class="cls-12" d="M1671.16,323.88c-20.69-1.42-36.8-2.5-48.21-3.25-11.46-.73-27.97-1.87-49.65-3.46.86-11.57,1.29-23.39,1.28-35.46-.66-59.96-10.18-109.02-28.57-147.71l95.61,9.62c20.23,36.67,30.54,80.08,30.98,130.65.08,8.21-.4,24.73-1.44,49.61Z"/>
      <path class="cls-4" d="M1966.55,451.23c-10.33-34.18-22.79-68.39-37.36-102.69-14.61-34.34-30.19-67.15-46.77-98.45-16.63-31.4-32.97-59.55-49-84.44l-109.36-10.92c6.14,25.62,10.89,53.85,14.25,84.76,3.38,31.03,5.33,63.55,5.85,97.63,1.08,72.66-4.3,142.88-16.31,210.89l96.9.16c.57-6.42,3.17-20.65,7.76-42.62,7.53.1,18.23.32,32.02.65,13.7.34,24.4.55,32.18.65,1.39,11.09,4.23,24.9,8.52,41.45l82.55.13c-3.81-30.59-10.88-62.98-21.22-97.19ZM1838.59,402.6c.13-4.48.32-13.66,0-27.47-.42-18.33-3.41-49.58-4.85-61.41,6.21,11.01,18.67,37.72,24.24,51.72,5.58,13.98,11.13,26.65,14.54,37.17h-33.94Z"/>
    </g>
    <g>
      <path class="cls-6" d="M403.83,580.44l-80.24-.23c-7.5,45.25-27.64,93.99-60.26,146.31,7.35-.1,14.93-.13,22.71-.11,7.76.03,14.42,0,19.98-.06,12.72-17.52,23.03-33.86,30.88-49.03,13.41-.21,23.51-.4,30.32-.57,18.68-.24,32.19-8.74,40.58-25.57,8.61-17.62,13.74-32.31,15.3-44.09,2.39-17.79-4.02-26.7-19.26-26.65ZM376.2,625.28c.15,2.92-.5,5.82-1.8,8.43h0c-.89,2.42-3.23,4.85-6.46,4.85-5.22,0-15.32-.13-19.39,0,1.33-3.17,5.56-15.22,6.46-17.78,3.2,0,10.26-.04,15.43-.02,2.3.01,4.41,1.24,5.56,3.23v.02c.11.18.17.65.2,1.27Z"/>
      <path class="cls-7" d="M518.09,581.01l-51.44-.26c-8.27,20.17-21.54,43.51-39.76,69.99-18.15,26.39-37.72,50.91-58.73,73.58l44.04-.53c6.35-7,11.15-12.12,14.4-15.32l15.18-.16c3.57.08,8.66.08,15.27.02-2.21,3.77-4.54,8.78-6.97,15l40.19-.5c13.09-22.98,21.9-49.57,26.39-79.87,3.35-22.54,3.83-43.2,1.42-61.95ZM455.2,670.88c7.5-10.13,18.13-26.05,22.63-33.94.18,7.47-1.57,23.43-4.85,33.94h-17.78Z"/>
      <path class="cls-19" d="M587.34,630.6c-.21,1.37,1,2,3.65,1.89,9.41-.02,17.28-.03,23.6-.03,13.46.1,19.18,6.19,17.18,18.26-.52,3.15-1.63,6.61-3.33,10.34-2.38,5.25-4.7,10.55-6.98,15.9-2.62,5.48-5.62,10.65-9,15.53-5.66,8.26-12.67,15.13-21.06,20.62-8.39,5.51-16.14,8.31-23.3,8.39l-72.93.73c9.91-14.84,19.7-30.22,29.38-46.17l47.82-.32c.32,0,1.12.11,2.39.32.86.11,1.55.06,2.08-.18.52-.24,1.03-.89,1.52-1.94.45-.71.69-1.23.74-1.58.19-1.16-1.26-1.68-4.33-1.55-6.24.03-14.95.1-26.15.16-9.71.18-13.82-4.78-12.28-14.92.55-3.65,1.86-7.9,3.93-12.77,4.09-10.18,7.3-19.81,9.63-28.86,2.31-9.07,6.25-16.78,11.78-23.13,6.59-7.53,14.17-11.22,22.69-11.05l60.1.48c-3.14,15.71-7.19,31.42-12.17,47.11-14.63-.34-28.02-.45-40.19-.32-.86-.11-1.73-.18-2.6-.18-.66,0-1.16.44-1.52,1.29-.36.86-.57,1.52-.65,1.97Z"/>
    </g>
    <g>
      <path class="cls-13" d="M235.79,734.41l-55.22.68c-.31,2.23-.65,4.61-.99,7.16-2.25,16.13-8.19,36.17-17.94,60.23-9.47,23.37-19.18,42.65-29.14,57.73l56.31.32c12.43.1,22.37-6.42,29.8-19.51,6.53-11.54,9.89-17.55,10.13-18.08,3.51-6.9,5.58-12.77,6.17-17.62.47-3.78.1-7.26-1.08-10.39,6.58-5.79,10.96-12.48,13.11-20.09,1.73-6.13,2.89-11.56,3.46-16.31,1.99-16.42-2.89-24.44-14.61-24.13ZM196.63,819.56h-11.31c1.26-2.52,3.7-9,4.85-11.31,3.96-.13,7.73,0,9.7,0,0,0,1.18,0,1.52,4.03.18,2.07-.42,4.19-1.8,5.75-.76.85-1.74,1.53-2.95,1.53ZM209.56,782.39c-3.44.03-7.71-.23-9.7,0,.66-2.55,2.55-10.28,3.23-12.93h8.08c1.16-.11,3.59,3.65,3.23,6.46-.31,2.28-3.38,6.46-4.85,6.46Z"/>
      <path class="cls-14" d="M285.98,773.66c-.63,1.99-1.33,4.07-2.07,6.27,6.56-.15,15.95-.1,28.15.15-3.3,10.6-7.14,21.62-11.56,33.08l-28.25.1-2.07,4.95c5.85-.02,16.35-.05,31.55-.1-7.01,14.37-14.64,28.52-22.85,42.42l-64.21-.32c10.76-18.46,20.52-39.84,29.3-64.06,8.42-23.14,14.09-43.78,17.08-61.96l62.83-.44c-1.62,13.11-3.88,26.55-6.82,40.34-15.42-.42-25.78-.55-31.09-.42Z"/>
      <path class="cls-8" d="M390.98,794.49c-.24,2.86-.94,6-2.08,9.41-1.6,4.8-3.18,9.66-4.72,14.58-1.79,5.06-3.93,9.84-6.37,14.37-4.1,7.68-9.36,14.08-15.76,19.18-6.42,5.12-12.44,7.68-18.08,7.68l-56.6-.16c7.42-13.69,14.67-27.78,21.77-42.26l36.65-.11c.26-.02.87.1,1.87.31.66.11,1.2.05,1.6-.16s.78-.81,1.12-1.76c.32-.65.48-1.13.52-1.45.11-1.05-1.03-1.54-3.41-1.42-4.8.02-11.51.05-20.1.06-7.42.15-10.65-4.35-9.7-13.43.34-3.28,1.23-7.06,2.68-11.38,2.86-9,5.04-17.47,6.56-25.36,1.52-7.87,4.25-14.54,8.21-20.02,4.7-6.5,10.23-9.71,16.6-9.68l45.51-.26c-1.6,13.62-3.94,27.41-7,41.32-11.33-.24-21.64-.27-30.96-.11-.66-.1-1.33-.15-1.99-.15-.5,0-.87.39-1.12,1.15-.24.76-.39,1.34-.42,1.75-.11,1.21.84,1.78,2.86,1.65,7.21-.03,13.27-.08,18.13-.1,10.42.03,15.18,5.48,14.22,16.37Z"/>
      <path class="cls-2" d="M479.51,737.36c-2.62-3.25-6.37-4.78-11.26-4.64l-39.84.36c-6.45.06-11.94,3.36-16.5,9.92-3.72,5.2-6.32,11.77-7.82,19.7-1.81,9.32-5.25,21.12-10.38,35.42-4.48,12.59-9.05,24-13.69,34.23-2.65,5.83-4.19,10.97-4.57,15.42-.79,8.81,2.8,13.24,10.78,13.24h39.42c5.79,0,11.33-1.87,16.63-5.59,6.01-4.17,10.81-10.28,14.42-18.34,11.8-26.07,20.25-52.9,25.41-80.43.39-1.89.63-3.67.73-5.35.4-6.04-.71-10.7-3.31-13.93ZM421.22,815.63c.06-.86.36-1.83.87-2.89,5.11-11.88,8.84-23.11,11.18-33.7.81-3.8,1.97-5.7,3.49-5.72.68.11,1.52.13,2.54.06,1.02-.05,1.83-.08,2.42-.08,1.86-.02,2.67,1.76,2.39,5.35-.29,3.91-1.73,9.49-4.32,16.71-1.97,5.87-3.99,11.01-6.03,15.4-2.55,5.27-4.98,7.85-7.27,7.74-3.67.02-5.43-.94-5.28-2.88Z"/>
      <path class="cls-16" d="M523.34,732.21c-3.35,22.88-8.15,44.38-14.38,64.43-6.09,19.68-14.48,40.81-25.21,63.37l-31.42.02c20.61-44.18,33.99-86.69,40.35-127.53l30.66-.29Z"/>
      <path class="cls-21" d="M618.19,741.73c-.65,19.12-4.7,39.84-12.22,62.17-6.3,18.94-14.5,37.54-24.58,55.77-5.04,0-12.27.06-21.7.18-9.42.11-16.81.16-22.16.16,5.17-24.27,8.4-41.65,9.71-52.25-6.37,17.78-14.22,35.2-23.53,52.25h-32.77c24.34-46.64,37.33-89.39,39.3-128.33l45.69-.42c3.56,18.68,5.51,34.39,5.85,47.06,2.23-11.96,3.62-27.7,4.17-47.16l32.23-.29c.13,3.56.15,7.18.02,10.86Z"/>
    </g>
    <g>
      <path class="cls-15" d="M883,598.14c-7.69-15.76-18.71-23.51-33.1-23.27l-148.99-.24c-2.84,52.18-16.42,120.66-40.87,205.88-24.1,84.31-48.95,151.4-74.55,200.96l154.13-6.79c14.88-.69,30.61-8.95,47.19-24.71,16.5-15.68,29.72-35.44,39.71-59.31,19.51-45.19,33.83-84.59,43.05-118.4,9.2-33.66,16.21-72.3,21.06-115.94,2.6-23.05.06-42.42-7.63-58.18ZM791.98,727.59c-3.43,23.84-8.81,47.09-16.16,69.78-9.92,30.46-20.06,45.9-30.38,46.2l-18.28.55c18.29-48.84,31.58-96.3,39.95-142.46,7.39-.42,13.14.02,17.26,1.28,7.19,1.89,9.73,10.1,7.61,24.65Z"/>
      <path class="cls-11" d="M991.64,699.03c-1.45,6.13-3.01,12.57-4.7,19.34,16.61-.57,40.21-.58,70.64-.06-7.37,32.32-16.08,65.89-26.15,100.75l-71.03,1.99-4.8,15.21c14.87-.45,41.37-1.24,79.27-2.38-16.27,43.75-34.07,86.87-53.4,129.37l-165.3,6.82c26.13-57.92,49.28-124.71,69.51-200.35,19.46-72.42,32.08-137.16,37.99-194.48l159.9,1.26c-3.09,40.27-7.76,81.45-14.04,123.54-38.4-1.13-64.45-1.47-77.9-1Z"/>
      <path class="cls-9" d="M1376.21,600.22c-6.67-14.58-16.37-21.75-29.11-21.51l-129.84-.16c-5.61,59.59-17.66,125.78-36.25,198.86-18.73,73.68-38.66,133.17-59.8,178.27l78.88-3.73c17.16-39.11,31.56-78.06,43.23-116.86,3.22,12.69,4.3,28.39,3.23,47.16-.99,17.53-3.93,40.16-8.84,67.94l73-3.44c9.26-32.02,14.58-60.83,15.97-86.51.84-15.43.24-30.98-1.78-46.64,16.9-11.83,30.79-36.27,41.7-73.18,7.81-25.76,13.2-54.43,16.19-86.06,2.28-21.54.08-39.58-6.59-54.14ZM1303.66,698.35c-.1,1.55.52,10.47,0,12.93-1.33,6.19-6.37,7.73-9.7,8.08-24.24,0-24.08-.11-32.32,0,1.73-6.82,4.46-21.35,6.46-29.09,8.47-.4,22.4.08,29.09,0,1.92-.02,6.69,3.78,6.46,8.08Z"/>
      <path class="cls-22" d="M1551.75,593.21c-5.56-9.32-13.56-13.87-24.03-13.62l-86.64-.42c-14.27-.06-26.41,9.37-36.36,28.36-8.11,15.11-13.72,34.21-16.82,57.27-3.68,27.07-10.97,61.25-21.88,102.66-9.54,36.36-19.3,69.33-29.3,98.91-5.7,16.86-8.9,31.66-9.6,44.35-1.36,25.11,6.92,37.25,24.74,36.41l86.41-4.1c12.48-.6,24.34-6.32,35.59-17.15,12.73-12.06,22.85-29.4,30.37-51.99,24.68-73.1,42.33-148.34,53.07-225.88.79-5.33,1.31-10.36,1.54-15.09.82-17.15-1.54-30.37-7.08-39.69ZM1427.47,816.15c.11-2.42.73-5.19,1.83-8.24,10.84-33.92,18.7-65.95,23.58-96.19,1.66-10.86,4.15-16.31,7.47-16.35,1.47.29,3.31.34,5.53.16s3.98-.27,5.25-.29c4.04-.05,5.82,5.04,5.3,15.24-.57,11.13-3.57,26.96-9.02,47.53-4.17,16.66-8.42,31.26-12.75,43.75-5.38,14.98-10.59,22.4-15.58,22.24-8.02.24-11.89-2.36-11.6-7.84Z"/>
      <path class="cls-3" d="M1740.3,579.31c-6.14,106.29-23.42,198.88-52.01,277.92-7.53,21.11-17.55,38.62-30.11,52.56-12.62,14-24.76,21.28-36.41,21.83l-81.89,3.86c-16.71.79-24.5-10.89-23.32-35.02.61-12.35,3.6-26.89,8.95-43.59,28.96-91.04,47.35-183.27,55.38-277.05,14.19.08,36.88-.26,67.89-.97-9.92,90.52-22.61,165.81-38.08,225.74-2.13,7.74-2.31,11.59-.55,11.54l21.98-.66c3.68-.11,6.92-5.51,9.68-16.18,8.74-34.29,15.76-69.73,21.07-106.34,3.83-27.17,7.97-64.89,12.4-113.1,12.07.05,23.51-.03,34.33-.27,15.37-.21,25.58-.31,30.67-.27Z"/>
      <path class="cls-10" d="M1898.61,580.94c-.26,31.42-4.7,68.26-13.33,110.62-10.07-.45-23.97-.27-41.73.5-12.98,68.02-34.83,145.26-65.76,232.22l-63.4,2.99c31-92.43,52.75-169.95,65.52-233.14-18.68.23-33.19,1.28-43.46,3.14,2.49-18.5,4.95-37.06,7.37-55.64,2.41-18.55,4.1-39.32,5.11-62.28l149.68,1.6Z"/>
      <path class="cls-17" d="M1962.74,687.69c-.99,5.32-2.07,10.91-3.25,16.79,12.54-.45,30.38-.44,53.41.06-5.07,28.09-11.13,57.26-18.2,87.51l-53.61,1.5-3.38,13.17c11.2-.34,31.19-.94,59.81-1.79-11.62,37.95-24.37,75.29-38.29,112.08l-124.25,5.01c18.68-49.97,35-107.73,49-173.2,13.49-62.74,21.98-118.91,25.52-168.67l120.85,1.02c-1.71,35.05-4.61,70.88-8.71,107.49-29.07-1.03-48.77-1.36-58.92-.97Z"/>
    </g>
  </g>
  <g id="Calque_5" data-name="Calque 5">
    <text class="cls-23" transform="translate(958.77 329.2)"><tspan x="0" y="0"> </tspan></text>
    <g>
      <path class="cls-5" d="M408.59,650.78c-8.39,16.88-21.2,26.47-40.09,26.68-6.88.16-17.43-.19-31,0-7.93,15.26-18.79,31.18-31.66,48.84-5.64.07-12.4.09-20.28.06-7.9-.03-15.59,0-23.06.09,33.07-52.73,53.38-101.68,60.87-147l80.91.46c15.36,0,21.85,8.93,19.54,26.72-1.53,11.78-6.61,26.5-15.23,44.13ZM417.33,612.71c1.28-7.26.57-12.9-2.14-16.92-2.71-4.03-7.08-6.06-13.09-6.11l-71.89-.49c-3.35,20.3-10.6,43.21-21.72,68.7-9.67,22.37-20.84,43.72-33.53,64.07,4.12-.05,9.17-.04,15.14,0,5.96.05,10.93.06,14.9.01,12.65-17.28,22.54-33.73,29.66-49.34,6.42-.15,18.64-.32,36.6-.52,14.88-.18,25.4-6.62,31.61-19.33,7.46-15.25,12.28-28.61,14.45-40.07ZM381.45,630.21c-.18.49-.44,1.21-.79,2.18-2.53,7.28-7.15,10.91-13.87,10.92-7.78,0-14.6.08-20.44.2,1.89-4.02,4.71-11.44,8.49-22.29,6.68-.23,13.74-.33,21.17-.32,1.97,0,3.5.74,4.6,2.2,1.09,1.46,1.51,3.22,1.25,5.29-.09.73-.23,1.34-.4,1.82ZM373.27,630.93c.19-.61.09-1.24-.28-1.92-.38-.67-.86-1.01-1.44-1.01-4.88,0-9.54.05-13.99.16-.9,2.56-2,5.42-3.32,8.58,4.09-.12,8.75-.18,13.98-.18,1.97,0,3.4-1.21,4.28-3.65l.77-2Z"/>
      <path class="cls-5" d="M518.5,580.46c2.54,18.75,1.34,39.74-1.83,62.32-4.27,30.4-12.89,57.11-25.85,80.23l-41.32.45c2.41-6.27,4.81-11.2,7-15-6.63.06-10.84-.02-14.43-.11l-15.24.15c-3.25,3.23-8.05,8.38-14.4,15.44l-44.31.52c21.07-22.87,40.63-47.53,58.72-74.03,18.12-26.55,31.26-49.9,39.42-70.05l52.24.09ZM512.37,589.47l-40.98-.28c-6.96,17.18-19.26,38.7-36.88,64.57-17.28,25.22-34.38,47.06-51.34,65.54l29.38-.33c3.35-3.16,8.26-8.25,14.72-15.27l40.86-.37c-.61,1.99-1.79,4.51-3.54,7.55-1.91,3.4-3.2,5.92-3.87,7.55l28.93-.32c10.46-18.63,17.62-41.7,21.48-69.33,3.12-22.3,3.53-42.08,1.22-59.31ZM486.15,619.47c.18,10.22-.42,20.35-1.79,30.4-1.45,10.62-3.68,19.98-6.69,28.07l-30.38.17c15.89-19.28,28.44-38.82,37.67-58.64h1.18ZM475.28,643.35c-4.45,7.91-10.4,16.95-17.85,27.13l13.34-.06c3.23-10.55,4.73-19.58,4.51-27.07Z"/>
      <path class="cls-5" d="M644.5,580.91c-2.97,15.61-7.19,31.93-12,47.55-14.66-.37-31,0-43-1-2.88-.24.84,0,0,0-.66,0-.77.13-1.11.99-.35.86-.56,1.51-.62,1.96-.21,1.38,1.02,2.01,3.68,1.89,9.44,0,17.33.01,23.67.02,13.5.13,19.3,6.22,17.43,18.25-.49,3.15-1.57,6.59-3.22,10.32-2.33,5.24-4.61,10.54-6.84,15.89-2.58,5.46-5.54,10.63-8.89,15.52-5.6,8.25-12.58,15.12-20.96,20.63-8.38,5.51-15.92,8.46-23.13,8.54l-75,1c9.9-14.88,20.37-31.03,30-47h48.62c.33,0,1.38,0,2.38,0h1l1-1c.58-.58.95-1.65,1-2,.17-1.17.09-1.13-3-1-6.27.03-16.73-.05-28,0-9.77.16-13.46-4.88-12-15,.53-3.65,2.97-9.16,5-14,4.03-10.17,7.24-19.25,9.5-28.27,2.26-9.04,6.14-16.71,11.63-23,6.56-7.49,14.12-11.13,22.65-10.94l60.21.67ZM638.09,589.4l-55.05-.38c-5.73-.04-10.75,2.32-15.03,7.09-4.29,4.77-7.38,10.99-9.26,18.65-2.36,9.41-5.68,19.34-9.94,29.78-1.73,4.33-2.8,7.96-3.22,10.89-.99,6.89,1.81,10.32,8.41,10.29,5.93-.02,14.63-.06,26.1-.1,6.32-.02,9.23,1.6,8.74,4.87-.21,1.4-.86,3.22-1.95,5.44-1.72,3.5-3.8,5.79-6.24,6.85-1.74.71-4.63,1.08-8.67,1.1-10.94.05-25.1.12-42.52.21-7.43,12.55-14.35,23.56-20.77,33.04l65.28-.72c5.54-.06,11.75-2.35,18.64-6.87,6.88-4.51,12.62-10.19,17.22-17.05,6.11-8.96,11.1-19.08,14.99-30.37.95-2.68,1.59-5.07,1.91-7.17,1.43-9.34-2.92-14.08-13.07-14.19-6.18,0-13.95,0-23.32,0-5.91.12-8.63-1.5-8.13-4.85.21-1.39.68-3.12,1.43-5.21,1.39-3.47,3.21-5.79,5.46-6.94,1.52-.69,4.2-1.04,8.03-1.03,12.11-.09,23.08-.06,32.92.07,3.19-10.17,5.87-21.31,8.05-33.42Z"/>
    </g>
    <g>
      <path class="cls-5" d="M247.76,775.26c-2.13,7.66-6.53,14.41-13.19,20.23,1.24,3.16,1.65,6.65,1.21,10.47-.56,4.89-2.6,10.8-6.12,17.74-.23.54-3.62,6.59-10.17,18.2-7.45,13.18-17.56,19.75-30.28,19.65l-57.7-.3c10.03-15.2,19.77-34.64,29.2-58.2,9.71-24.27,15.59-44.49,17.7-60.78l.94-7.23,56.57-.57c12-.29,17.08,7.8,15.22,24.35-.54,4.78-1.66,10.26-3.36,16.43ZM246.47,759.56c.83-6.03.12-10.52-2.13-13.5s-5.59-4.45-10.02-4.42l-49.07.35-.6,4.8c-1.72,13.68-7.26,32.53-16.68,56.68-9.06,23.44-17.58,41.33-25.53,53.55l50.26-.04c4.86.11,8.91-.77,12.16-2.61,4.22-2.27,7.97-6.39,11.27-12.32,2.44-4.41,4.88-8.85,7.32-13.31,2.43-4.45,4.51-8.7,6.22-12.76.7-1.71,1.15-3.51,1.37-5.43.34-2.97.06-5.7-.82-8.19-.88-2.48-2.31-4.14-4.3-4.98.08,0,.09-.05.02-.16,3.63-1.18,7.14-3.72,10.53-7.64,3.39-3.91,5.6-7.96,6.65-12.16.98-3.56,2.1-9.52,3.35-17.86ZM206.08,813.42c-.21.33-.52.86-.94,1.61-3.63,6.68-7.5,10.04-11.59,10.05-2.84,0-7.17-.04-12.99-.13,3.83-7.44,6.92-13.94,9.27-19.51.58,0,4.94-.02,13.09-.05,3.17-.11,4.56,1.54,4.15,4.97-.12.97-.45,1.99-.99,3.06ZM199.9,814.89c.42-.74.66-1.33.71-1.76.02-.85-.26-1.28-.84-1.27-2,0-5,.07-9,.19-1.12,2.34-2.29,4.79-3.52,7.35l7.49-.02c1.9.1,3.62-1.4,5.16-4.49ZM218.88,776.69c-.11.21-.21.74-.31,1.58-.5,2.84-1.65,5.1-3.47,6.79-1.81,1.69-3.88,2.54-6.2,2.55-5.55.02-9.77.36-12.66,1,2.03-6.52,3.76-13.24,5.17-20.14,1.66-.11,6.04-.24,13.15-.39,1.49,0,2.67.82,3.54,2.49.88,1.67,1.13,3.71.77,6.12ZM211.44,774.49l-7.68.04c-.65,2.67-.63,4.36-1.27,6.93,2.01-.22,2.52,0,6,0,1.45,0,2,0,4-2,1-2,.11-5.09-1.06-4.97Z"/>
      <path class="cls-5" d="M324.5,732.71c-1.52,13.32-4.14,27.74-7,41.76-15.7-.45-25.59-.13-31,0-.63,2.02-1.26,2.77-2,5,6.69-.14,15.98.06,28.41.32-3.25,10.77-7.06,21.97-11.44,33.6l-28.76.09-1.21,3.99c5.96-.02,16.54.04,32,0-7,14.6-15.33,29.89-23.55,44l-65.45-1c10.78-18.75,20.52-39.78,29.21-64.41,8.34-23.53,13.92-44.52,16.77-63.03l64.02-.32ZM321.48,740.19l-53.72.38c-2.37,15.11-7.47,33.99-15.35,56.73-8.29,23.72-16.81,43.3-25.53,58.65l54.79-.04c6.25-10.72,11.66-20.85,16.24-30.41-13.97.1-24.33.11-31.07.02,2.55-6.53,4.75-12.24,6.59-17.14l28.34-.09c2.82-7.42,5.26-14.5,7.33-21.23-10.14-.3-19.66-.38-28.56-.23,2.21-6.65,4.15-12.69,5.81-18.15,7.35-.25,17.6-.14,30.75.32,1.76-8.87,3.22-18.47,4.37-28.81Z"/>
      <path class="cls-5" d="M397.5,732.46c-1.51,13.74-3.77,27.63-6.77,41.65-11.55-.26-22.09-.31-31.59-.15-.68-.1-1.36-.15-2.04-.15-.51,0-.89.39-1.13,1.15s-.38,1.35-.41,1.76c-.11,1.23,2.88.85,4.94.73,7.37-.04,12.02.02,17,0,10.64.05,15.04,6.39,14.17,17.35-.23,2.88-.91,6.04-2.05,9.47-1.6,4.83-3.16,9.73-4.68,14.69-1.8,5.08-3.92,9.9-6.38,14.45-4.11,7.73-9.41,14.16-15.89,19.3-6.5,5.15-12.62,7.73-18.38,7.73l-57.82-.14c7.44-13.79,15.91-29.26,23.02-43.86h36c.26,0,1,0,2,0h2c.41-.21-1.34.97-1,0,.32-.65.55-1.09,1-2,.48-.97.38-1.47-2.04-1.35-4.91.02-11.76.04-20.54.06-7.58.13-11.3-4.55-10.42-13.71.32-3.29,1.56-7.66,3-12,2.83-9.09,4.99-16.92,6.47-24.88,1.47-7.94,4.2-14.66,8.19-20.19,4.75-6.55,10.38-9.79,16.88-9.74l46.46-.19ZM392.95,739.97l-42.84.3c-4.41.03-8.18,2.14-11.32,6.33-3.15,4.2-5.33,9.67-6.55,16.41-1.54,8.33-3.82,17.17-6.83,26.51-1.22,3.9-1.96,7.16-2.21,9.8-.59,6.24,1.69,9.35,6.85,9.33,4.64-.02,11.48-.04,20.52-.07,5-.02,7.37,1.48,7.11,4.48-.11,1.29-.56,2.96-1.34,5-1.23,3.23-2.8,5.34-4.7,6.32-1.36.65-3.64.98-6.84.99-8.66,0-19.81.01-33.44.02-5.53,11.53-10.72,21.69-15.58,30.49l51.76-.04c4.45,0,9.36-2.11,14.73-6.32,5.36-4.2,9.75-9.52,13.15-15.94,4.51-8.35,8.04-17.75,10.62-28.17.63-2.47,1.02-4.66,1.18-6.59.68-8.54-3.02-12.82-11.09-12.9-4.9.02-11.04.05-18.41.08-4.64.13-6.83-1.32-6.56-4.33.11-1.25.42-2.8.93-4.67.96-3.11,2.29-5.18,4.01-6.22,1.16-.63,3.24-.95,6.24-.96,9.5-.15,18.15-.2,25.94-.14,2.02-9.12,3.58-19.03,4.69-29.72Z"/>
      <path class="cls-5" d="M483.72,756.56c-5.09,27.69-13.57,54.65-25.5,80.84-3.64,8.1-8.53,14.24-14.68,18.42-5.42,3.75-11.11,5.62-17.08,5.62l-40.62.02c-8.24,0-11.98-4.44-11.25-13.3.37-4.47,1.9-9.64,4.58-15.51,4.71-10.29,9.32-21.77,13.83-34.43,5.15-14.4,8.61-26.27,10.38-35.66,1.49-7.98,4.12-14.59,7.89-19.84,4.65-6.59,10.29-9.9,16.94-9.95l41.06-.3c5.04-.14,8.92,1.42,11.63,4.69,2.72,3.27,3.9,7.95,3.53,14.04-.1,1.68-.34,3.47-.71,5.37ZM478.92,759.22c.27-1.58.44-3.1.53-4.57.59-9.84-3.3-14.72-11.65-14.66l-40.73.28c-8.91.06-14.79,7.7-17.66,22.98-1.85,9.69-5.37,21.91-10.58,36.71-4.48,12.96-9.09,24.69-13.85,35.18-2.32,4.99-3.61,9.18-3.89,12.55-.49,6.11,2.11,9.16,7.81,9.16l40.2-.03c11.01,0,19.37-6.31,25.02-18.87,11.52-25.46,19.77-51.72,24.79-78.73ZM448.89,779.39c-1.68,10.98-5.17,22.08-10.46,33.29-4.09,8.66-8.67,12.95-13.73,12.85-1.23,0-2.58,0-4.07,0-3.67,0-5.37-1.83-5.1-5.51.14-1.95.8-4.38,1.97-7.29,4.91-11.41,8.46-22.17,10.65-32.3.78-3.72,2.16-6.72,4.14-9.01,1.97-2.28,4.13-3.43,6.46-3.44.43,0,2.08-.06,4.94-.18,2.33-.01,3.91.98,4.73,2.99.82,2.01.98,4.87.47,8.59ZM441.67,773.27c-.61,0-1.43.03-2.47.09-1.04.06-1.9.04-2.59-.07-1.56,0-2.73,1.92-3.51,5.74-2.31,10.65-6.02,21.94-11.13,33.89-.51,1.08-.8,2.05-.86,2.91-.14,1.94,1.66,2.91,5.42,2.9,2.35.1,4.8-2.49,7.35-7.79,2.05-4.42,4.06-9.58,6.03-15.48,2.58-7.27,4-12.87,4.27-16.8.24-3.61-.59-5.41-2.49-5.4Z"/>
      <path class="cls-5" d="M523.5,731.52c-3.26,23.01-8.02,44.61-14.27,64.75-6.1,19.77-14.56,40.97-25.39,63.63l-32.27.02c20.81-44.38,34.23-87.1,40.45-128.17l31.48-.23ZM518.98,739.93l-20.96.15c-5.45,37.28-17.22,76.01-35.46,116.21l21.44-.02c17.92-38.62,29.54-77.42,34.99-116.34Z"/>
      <path class="cls-5" d="M618.35,730.46c.16,3.6.19,7.26.09,10.98-.53,19.33-4.48,40.25-11.9,62.8-6.22,19.11-14.34,37.88-24.36,56.29-5.06,0-12.34.06-21.84.18-9.48.12-17.45-.24-22.85-.24,5.05-24.52,8.72-41.64,9.96-52.36-6.3,17.96-14.08,35.56-23.35,52.78l-33.62-.43c24.2-47.15,37.57-89.93,39.27-129.34l46.06-.34c3.71,18.91,5.79,34.8,6.2,47.6,2.17-12.08,3.47-28.01,3.89-47.67l32.43-.24ZM614.1,738.94l-22.2.16c-.32,14.77-1.47,27.31-3.45,37.56-2.11,11.27-5.86,23.46-11.26,36.59l-.53.33c.68-6.77,1.12-12.98,1.32-18.63.58-16.11-1.24-34.7-5.41-55.71l-36.25.26c-1.53,35.19-13.03,74.08-34.74,116.77l22.57-.02c14.36-26.87,24.31-53.84,29.92-80.85l.65-.16c.58,6.82.73,13.67.44,20.54-.52,12.72-3.56,32.81-9.17,60.46,3.93-.08,9.81-.15,17.64-.23,7.83-.08,13.81-.12,17.93-.13,8.59-15.8,15.76-32.65,21.54-50.52,6.87-21.18,10.52-40.3,11.01-57.39.09-3.06.09-6.07,0-9.02Z"/>
    </g>
    <g>
      <path class="cls-5" d="M891.54,655.36c-4.84,43.84-11.87,82.69-21.08,116.54-9.26,34-23.64,73.67-43.24,119.16-10.05,24.05-23.34,43.98-39.94,59.8-16.68,15.9-32.52,24.25-47.5,24.99l-155.27,7.18c25.83-50,50.89-117.62,75.18-202.54,24.63-85.76,38.28-154.6,41.15-207.04l149.76.13c14.44-.26,25.51,7.52,33.26,23.34,7.74,15.8,10.29,35.26,7.69,58.43ZM880.46,667.79c2.16-19.59.09-35.8-6.23-48.66s-15.17-19.33-26.54-19.34l-134.17-.13c-5.1,52.17-18.17,115.22-39.35,189.48-20.68,71.85-42.4,132.37-65.17,181.39l138.28-6.59c11.75-.22,24.42-6.87,37.98-19.89,13.5-12.96,24.59-29.44,33.27-49.43,18.87-43.8,32.69-81.89,41.54-114.41,8.82-32.39,15.61-69.86,20.39-112.41ZM811.7,725.97c-4.78,34.21-14.14,68.63-28.13,103.32-10.86,27.4-23.96,41.25-39.32,41.46-7.49.26-18.63.49-33.44.67,15.23-38.22,25.81-67.73,31.81-88.66,7.14-24.56,13.44-55.05,18.91-91.43,7.18-.08,18.41-.53,33.64-1.37,6.25-.4,10.92,2.78,14.01,9.51,3.08,6.74,3.92,15.57,2.51,26.51ZM791.44,729.75c2.12-14.62-.43-22.87-7.66-24.77-4.16-1.27-8.86-1.94-16.28-1.52-8.41,46.43-20.6,90.82-39,140h15c10.4-.33,22.02-15.33,32-46,7.39-22.83,12.5-43.75,15.94-67.72Z"/>
      <path class="cls-5" d="M1084.14,575.61c-3.04,40.41-7.69,81.74-13.94,124-38.53-1.09-64.68-1.39-78.18-.9-1.44,6.15-3.01,12.62-4.7,19.43,16.68-.58,40.37-.63,70.92-.15-7.37,32.48-16.07,66.21-26.14,101.26l-71.34,2.12-4.25,14.09c14.93-.48,40.94-.79,79-2-16.31,44.03-34.07,88.11-53.45,130.9l-166.22,7.24c26.27-58.36,49.51-125.63,69.8-201.72,19.51-72.8,32.16-137.85,38.05-195.42l160.45,1.15ZM1073.52,599.49l-136.27-.13c-4.97,47.17-16.73,105.95-35.35,176.64-19.59,73.61-40.1,134.5-61.54,182.48l140.64-6.71c14.96-32.78,27.84-63.69,38.67-92.77-35.01,1.44-61.2,2.3-78.39,2.57,6.03-20.07,11.22-37.63,15.57-52.69l71.42-1.99c6.58-22.55,12.26-44.06,17.03-64.55-25.33-.57-49.29-.49-71.85.25,5.17-20.45,9.69-39.06,13.55-55.87,18.62-.85,44.4-.63,77.19.64,3.91-26.99,7.02-56.28,9.34-87.88Z"/>
      <path class="cls-5" d="M1383.06,653.32c-2.93,31.72-8.26,60.49-16.02,86.33-10.83,37.07-24.69,61.61-41.61,73.52,2.06,15.71,2.69,31.32,1.89,46.84-1.34,25.79-6.61,54.74-15.82,86.94l-74.01,3.51c4.88-27.93,7.04-50.38,8-68,1.03-18.85,1.25-34.26-2-47-11.63,39.01-25.78,77.6-42.94,116.97l-79.15,3.91c21.15-45.4,41.05-105.23,59.73-179.28,18.51-73.41,30.48-139.85,36-199.61l130.03.05c12.74-.25,22.45,6.93,29.17,21.53,6.71,14.59,8.95,32.66,6.73,54.27ZM1374.39,662.44c1.87-18.27.04-33.31-5.5-45.16-5.55-11.86-13.26-17.8-23.15-17.8-14.9.3-53.39.42-116.23.37-4.6,50.86-15.54,110.57-32.9,179.41-17.57,70.35-35.23,124.62-52.98,162.58l55.7-2.65c15.29-35,29.21-75.24,41.77-120.66,2.19-.37,6.53-.67,13.02-.87,6.8,15.66,9.49,36.42,8.1,62.33-.84,15.64-3.14,34.47-6.88,56.53l53.09-2.52c5.68-19.86,9.03-39.57,10.05-59.16,1.05-20.18-.59-42.25-4.92-66.25,19.1-4.88,33.38-23.75,42.89-56.52,9.19-31.09,15.17-60.96,17.95-89.63ZM1310.81,711.69c-3.94,18.73-11.46,28.21-22.56,28.43-9.35.18-20.81.35-34.41.49,3.67-13.89,8.27-32.84,13.82-56.81,14.41-.81,25.94-1.27,34.62-1.37,3.27-.04,5.88,1.72,7.8,5.27,1.92,3.55,2.74,8.11,2.45,13.71-.08,1.56-.66,4.99-1.72,10.28ZM1300.85,708.96c.52-2.48.82-4.48.9-6.03.23-4.32-.61-6.47-2.53-6.45-6.7.09-14.29.35-22.77.77-1.99,7.78-3.84,15.09-5.56,21.94,8.27-.14,15.92-.26,22.98-.38,3.34-.36,5.66-3.64,6.97-9.85Z"/>
      <path class="cls-5" d="M1557.59,647.32c-10.52,77.74-27.96,153.22-52.44,226.62-7.46,22.7-17.53,40.12-30.25,52.26-11.23,10.9-23.1,16.67-35.59,17.29l-86.57,4.31c-17.87.89-27.54-11.11-26.23-36.35.66-12.75,4.33-28.05,10-45,9.96-29.71,19.53-62.49,29-99,10.83-41.56,18.37-75.85,22-103,3.05-23.13,9.3-42.39,17.38-57.55,9.92-19.04,22.03-28.5,36.32-28.45l86.63.35c10.46-.25,18.47,4.29,24.06,13.64,5.57,9.33,7.97,22.58,7.2,39.75-.21,4.74-.71,9.78-1.49,15.12ZM1547.72,656.39c.56-4.44.94-8.74,1.12-12.89,1.26-27.8-6.81-41.69-24.28-41.71l-86.71-.07c-19.33-.02-32,22.01-37.95,66.2-3.84,27.94-11.25,63.16-22.27,105.77-9.47,37.27-19.26,71.03-29.39,101.25-4.94,14.39-7.67,26.39-8.16,35.99-.89,17.36,4.9,25.74,17.35,25.14l86.38-4.14c23.22-1.11,40.67-19.36,52.4-54.61,23.91-71.47,41.03-145.06,51.51-220.93ZM1486.03,716.43c-3.49,31.06-10.75,62.44-21.84,94.2-8.57,24.54-18.24,36.88-29.02,36.95-2.61.09-5.51.2-8.68.31-7.86.28-11.54-4.78-11.03-15.19.27-5.51,1.64-12.42,4.11-20.73,10.36-32.55,17.81-63.24,22.37-92.1,1.63-10.61,4.54-19.19,8.74-25.74,4.19-6.54,8.78-9.83,13.76-9.89.92-.01,4.42-.2,10.5-.57,4.95-.06,8.3,2.76,10.04,8.44,1.74,5.69,2.09,13.79,1.05,24.32ZM1469.55,696.38c-1.29.02-3.04.12-5.26.3-2.22.18-9.15,1.89-10.79,12.79-4.8,30.33-13.22,64.96-24,99-1.09,3.08-1.88,4.56-2,7-.27,5.49,2.98,8.26,11,8,5.01.14,9.49-5.18,14.85-20.22,4.3-12.55,8.51-27.19,12.63-43.92,5.4-20.64,8.37-36.52,8.9-47.67.49-10.24-1.29-15.33-5.33-15.28Z"/>
      <path class="cls-5" d="M1741.5,577.46c-5.75,106.43-24.01,198.73-52.32,278.04-7.44,21.18-17.41,38.77-29.92,52.78-12.57,14.08-24.11,24.6-35.76,25.18l-83,2c-16.72.83-25.12-8.77-24-33,.57-12.4,3.69-31.23,9-48,28.7-91.38,47.72-182.88,55.48-276.84,14.17.06,36.84-.29,67.81-1.04-9.62,90.67-22.05,166.14-37.33,226.25-2.11,7.78-2.27,11.64-.5,11.58l21.96-.7c3.69-.12,6.9-5.53,9.63-16.24,8.62-34.4,15.52-69.93,20.7-106.63,3.74-27.22,7.74-65.01,12-113.28,12.06.05,23.48-.05,34.27-.29,15.34-.22,26.89.17,31.97.19ZM1731.39,601.53l-21.97-.02c-10.43-.29-17.81-.45-22.11-.45-7.1,80.04-17.64,148.18-31.64,204.36-2.1,8.32-5.38,15.79-9.85,22.43-4.48,6.65-8.93,10.06-13.32,10.21l-21.98.77c-6.03.21-8.87-3.69-8.52-11.7.19-4.44,1.24-10.25,3.15-17.41,15.09-58.79,26.86-128.24,35.36-208.28l-48.34,1.72c-3.36,39.94-10.14,84.59-20.37,134.09-9.44,46.78-20.25,89.36-32.45,127.74-4.45,14.26-6.89,26.05-7.32,35.37-.76,16.55,4.68,24.55,16.27,24l81.74-3.88c9.16-.44,18.88-6.44,29.16-18,10.23-11.52,18.48-26.07,24.75-43.66,26.25-73.4,41.99-159.12,47.45-257.3Z"/>
      <path class="cls-5" d="M1899.5,580.46c-.12,31.44-5.83,69.31-14.26,111.72-10.05-.43-23.91-.25-41.62.56-12.69,68.14-34.2,145.57-64.76,232.84l-64.36,1.88c30.63-92.76,52.49-169.68,65-233-18.65.25-33.76,1.12-44,3,2.43-18.53,6.05-36.49,8.4-55.11,2.34-18.59,3.7-39.91,4.6-62.89l151,1ZM1890.59,601.67l-130.29-.11c-.54,13.92-1.78,28.28-3.7,43.08-1.86,13.12-3.73,26.4-5.61,39.83,9.63-.4,24.36-1,44.12-1.82-13,69.34-33.55,146.82-61.87,232.89l44.06-2.09c29.26-83.16,49.94-160.34,62.29-231.97,7.58-.94,21.75-1.38,42.42-1.34,5.68-32.7,8.53-58.83,8.58-78.47Z"/>
      <path class="cls-5" d="M2029.36,581.38c-1.54,35.06-4.26,70.9-8.18,107.53-28.97-1-47.56-.85-57.68-.44-.97,5.32-2.86,10.11-4,16,12.5-.47,31.04-.47,54,0-4.93,28.12-11.82,57.67-18.72,87.98l-53.44,1.59-2.83,12.43c11.17-.36,31.47-1.09,60-2-11.42,38.03-24.81,76.35-38.53,113.24l-125.47,4.76c18.45-50.15,35.3-107.39,49-173,13.19-62.85,22.12-119.21,25.45-169l120.41.92ZM2021.79,601.37l-102.25-.09c-2.83,40.8-10.51,91.61-23.1,152.65-13.24,63.49-27.39,115.92-42.46,157.18l104.94-5c10.59-28.25,19.67-54.91,27.25-80.03-26.22,1.1-45.82,1.74-58.68,1.91,4.14-17.32,7.69-32.47,10.66-45.47l53.5-1.49c4.52-19.5,8.38-38.11,11.58-55.84-19.03-.55-37-.54-53.9.06,3.49-17.68,6.52-33.78,9.1-48.32,13.95-.71,33.3-.49,57.96.65,2.43-23.39,4.23-48.78,5.39-76.19Z"/>
    </g>
    <g>
      <path class="cls-5" d="M626.73,455.71c.15,3.05,0,7.36-.47,12.93-1.54,18.54-6.88,33.92-16.05,46.14-9.22,12.29-20.9,21.31-35.09,27.05-14.27,5.77-29.86,8.66-46.79,8.64l-205.29-.31c-23.66-.04-43.57-5.8-59.61-17.33-16.11-11.58-27.9-26.67-35.31-45.25-7.42-18.58-11.19-38.83-11.33-60.69.2-25.63-1.39-57.19-4.75-94.64s-8.35-74.04-15.01-110.2c-6.65-36.08-14.69-68.23-24.16-96.5-9.1-27.36-12.4-50.94-9.91-70.69C167.71,17.38,191.88.89,234.98,5.16l211.26,20.91c18.94,1.88,36.64,7.36,53.13,16.41,16.4,9.01,30.79,21.32,43.19,36.92,12.37,15.57,21.87,33.77,28.52,54.64,36.03,112.51,54.59,219.43,55.65,321.66ZM609.14,444.99c-.51-49.12-5.17-99.48-13.94-151.2-8.74-51.53-22.39-105.98-40.95-163.47-8.35-25.95-21.07-46.19-38.2-60.78-17.21-14.66-36.83-23.06-58.93-25.18l-211.34-20.25c-29.33-2.81-45.7,8.66-48.88,34.51-1.97,15.98,1.17,35.58,9.41,58.76,9.58,28.52,17.71,61.37,24.41,98.62,6.71,37.34,11.8,74.21,15.26,110.65,3.47,36.57,5.29,69.27,5.46,98.08,0,28.35,6.28,50.94,18.82,67.65,12.51,16.67,31.02,25.08,55.39,25.26l204.56,1.51c22.09.16,40.22-5.7,54.46-17.52,14.14-11.74,22.28-30.63,24.47-56.64ZM483.64,343.63c-1.77,18.47-5.64,31.61-11.62,39.38-6,7.8-15.16,11.52-27.51,11.15l-21.24-.65c-29.02-.89-44.3-18.97-45.59-54.14-.66-25.27-2.45-47.52-5.37-66.8-2.92-19.25-8.14-41.75-15.65-67.5-2.7-8.84-3.59-17.46-2.68-25.83,1.82-16.82,11.26-24.58,28.23-23.32,10.18.75,18.56,1.16,25.17,1.23,11.58.86,21.94,5.8,31.11,14.8,9.14,8.99,16.42,20.99,21.85,36.04,9.67,25.92,16.1,48.55,19.31,67.91,3.21,19.39,4.54,41.95,3.98,67.73ZM451.38,344.26c.56-15.48-.72-35.68-3.83-60.58-3.1-24.84-8.26-46.79-15.46-65.9-7.21-19.11-16.5-29.05-27.9-29.83l-26-1.78c-4.97.3-7.66,2.3-8.05,6-.18,1.69,1.02,7.48,3.59,17.36,12.99,44.3,20.44,91.06,22.34,140.48.58,10.31,3.83,16.88,9.73,19.69,5.89,2.8,15.22,4.64,27.95,5.5,4.74.16,8.54-1.57,11.38-5.18,2.83-3.61,4.92-12.2,6.26-25.76Z"/>
      <path class="cls-5" d="M1053.43,546.57c-22.43-.06-51.36.07-87.03.38-36.2.32-67.28.45-93.03.39-27.53-97.23-48.11-163.33-61.79-198.52,6.07,57.99,7.4,112.99,3.92,165.09-.97,14.6-1.9,25.71-2.79,33.29l-148.66-.33c4.5-56.87,4.97-112.36,1.47-166.63-3.49-53.94-12.45-109.31-26.87-166.26-14.39-56.82-35.56-115.1-63.6-175.05l210.44,20.83c19.16,27.25,35.27,50.7,48.35,70.37,13.05,19.62,25.36,38.97,36.93,58.05,11.55,19.04,22.13,37.65,31.77,55.83-13.74-44.73-38.33-105.03-73.87-181.12l134.88,13.38c19.24,36.11,35.25,72.72,48.05,109.89,12.81,37.18,22.73,73.9,29.8,110.22,7.08,36.42,11.76,71.56,14.01,105.48,2.26,34.06,2.64,67.35,1.13,99.91-.94,20.19-1.98,35.13-3.12,44.78ZM1040.41,517.67c1.59-17.12,2.53-28.86,2.84-35.25,1.82-38.14.4-79.29-4.22-123.5-4.6-44-13.44-89.21-26.52-135.73-13.06-46.45-30.5-90.32-52.39-131.75l-93.1-8.94c17.97,38.22,32.28,71.82,42.95,100.83,10.67,29.01,18.78,57.51,24.34,85.55,5.58,28.09,8.93,58.56,10.07,91.49l-1.79,1.09c-13.26-34.78-27.13-66.82-41.63-96.16-14.53-29.38-30.69-58.33-48.52-86.87-17.89-28.63-40.75-62.66-68.68-102.19l-166.88-15.97c18.02,38.38,32.82,77.39,44.44,117.09,11.63,39.74,20.42,78.83,26.37,117.31,5.97,38.6,9.57,76.53,10.8,113.85,1.23,37.49.53,73.53-2.12,108.11l101.9.83c.87-5.83,1.7-14.62,2.5-26.35,2.25-33.14,2.24-67.16-.01-102.11-2.25-34.8-6-67.32-11.24-97.6-5.23-30.22-11.34-57.49-18.32-81.85l2.99-.38c26.84,44.24,48.22,87.78,64.24,130.75,16.01,42.96,34.42,102.35,55.27,178.32,19.97-.04,37.31-.09,52.08-.17,14.68-.08,29.34-.15,43.97-.23,14.55-.07,31.45-.13,50.66-.16Z"/>
      <path class="cls-5" d="M1585.9,546.84c-17.66-.04-40.41.08-68.42.36-28.37.29-52.7.41-72.83.37-25.03-85.96-41.2-140-53.16-171.11,6.86,51.32,9.81,95.96,9,142-.23,12.9-.59,22.3-1,29l-117.59-.26c1.36-50.06-.34-98.95-5.08-146.79-4.72-47.59-13.74-96.44-27.05-146.68-13.29-50.14-31.88-101.51-55.85-154.28l164.29,16.26c15.97,24.04,29.42,44.74,40.37,62.11,10.93,17.34,21.27,34.44,31.02,51.32,9.74,16.85,18.71,33.32,26.92,49.41-12.39-39.68-33.85-93.12-64.45-160.5l106.34,10.55c16.45,32.05,30.37,64.58,41.78,97.65,11.42,33.07,20.55,65.75,27.41,98.09,6.87,32.41,11.8,63.69,14.77,93.88,2.98,30.3,4.45,59.91,4.4,88.84-.03,17.93-.33,31.2-.89,39.77ZM1576.63,522.24c.65-15.2.98-25.63,1-31.32.09-33.9-2.47-70.5-7.68-109.83-5.18-39.16-13.75-79.4-25.72-120.79-11.95-41.33-27.26-80.33-45.98-117.09l-73.44-7.05c15.48,33.87,27.92,63.66,37.34,89.4,9.42,25.74,16.81,51.04,22.19,75.95,5.39,24.95,9.12,52.02,11.19,81.27l-1.36.98c-11.65-30.84-23.69-59.24-36.12-85.22-12.45-26.02-26.16-51.64-41.16-76.88-15.04-25.31-34.16-55.36-57.43-90.23l-130.37-12.48c15.41,33.82,28.36,68.22,38.86,103.27,10.51,35.08,18.79,69.59,24.85,103.58,6.07,34.08,10.28,67.56,12.62,100.5,2.35,33.07,3.14,64.84,2.37,95.32l79.19.64c.46-5.15.79-12.91.99-23.28.54-29.29-.71-59.37-3.75-90.27-3.03-30.79-7.14-59.57-12.34-86.37-5.19-26.75-10.95-50.88-17.3-72.43l2.31-.36c22.56,39.06,40.85,77.54,54.92,115.55,14.07,38.01,30.61,90.56,49.66,157.77,15.63-.05,29.21-.11,40.78-.2,11.51-.08,23.01-.16,34.51-.24,11.43-.08,24.72-.14,39.84-.19Z"/>
      <path class="cls-5" d="M1670.89,323.57c-20.85-1.43-37.08-2.51-48.57-3.25-11.56-.74-28.19-1.89-50.02-3.46.9-11.65,1.36-23.55,1.4-35.7-.49-60.35-9.92-109.75-28.34-148.69l96.33,9.6c20.28,36.92,30.53,80.62,30.82,131.55.05,8.28-.49,24.9-1.62,49.96ZM1659.43,299.13c.45-12.69.66-22.15.63-28.41-.66-46.39-9.23-84.81-25.76-115.6l-61.9-5.97c6.58,13.88,11.43,28.75,14.57,44.64,3.14,15.91,5.1,29.9,5.87,41.97.77,12.09,1.67,31.53,2.69,58.38,31.4,2.63,52.59,4.28,63.89,4.98Z"/>
      <path class="cls-5" d="M1989.7,549.84l-84.2-.37c-4.27-16.67-7.63-30.82-9-42-7.85-.1-17.3.1-31.12-.24-13.92-.34-24.71-.56-32.31-.66-4.71,22.12-7.38,36.46-7.98,42.91l-97.76-.22c12.34-68.48,17.03-139.62,16.17-212.79-.4-34.33-2.69-66.74-6-98-3.3-31.13-7.89-58.19-14-84l111.61,9.62c16.11,25.07,32.5,53.42,49.19,85.06,16.64,31.55,32.27,64.61,46.9,99.22,14.62,34.57,27.08,69.05,37.39,103.5,10.33,34.49,17.36,67.12,21.1,97.97ZM1980.8,527.09c-3.01-25.6-9.42-53.98-19.24-85.21-9.82-31.21-21.68-62.93-35.6-95.22-13.94-32.33-28.56-63.04-43.88-92.13-15.36-29.17-30.19-54.96-44.49-77.35l-87.67-8.39c5.21,22.35,9.24,48.16,12.09,77.48,2.86,29.44,4.51,60.34,4.95,92.77.45,33.65-.4,66.62-2.58,98.91-2.19,32.52-5.69,61.63-10.51,87.3l64.6.53c.62-5.87,2.05-13.2,4.29-22,2.23-8.77,3.6-15.85,4.1-21.27,21.13.72,50.16,1.43,86.74,2.12,1.85,5.41,3.32,12.62,4.41,21.63,1.09,9.02,2.21,15.81,3.35,20.35l59.43.48ZM1895.49,417.82l-64.43-2.31c1.83-18.81,2.53-39.4,2.1-61.79-.67-35.11-3.79-67.17-9.36-96.3l2.55.19c14.79,27.02,28.45,54.55,41,82.63,12.53,28.04,21.91,53.89,28.14,77.57ZM1872.5,402.46c-3.42-10.61-8.03-22.07-14-36-6-14-10.78-24.91-17-36,1.4,11.92,2.16,25.69,2.53,44.15.28,13.93.34,23.15.2,27.67l28.28.18Z"/>
    </g>
  </g>
</svg>